<svg width="1386" height="246" viewBox="0 0 1386 246" fill="none" xmlns="http://www.w3.org/2000/svg">
<path d="M0 0H156.275L164.666 44.0508H156.275C154.178 37.6413 152.022 32.4554 149.808 28.4932C147.71 24.5309 144.738 20.9766 140.893 17.8301C137.163 14.5671 132.444 12.2363 126.733 10.8379C121.023 9.43945 113.973 8.74023 105.582 8.74023H21.3262V111.525H140.193V129.705H21.3262V223.75H167.113V244.727H0V0Z" fill="#120707"/>
<path d="M298.832 0H348.127L490.768 203.123V0H512.443V244.727H490.418L328.549 14.334V245.076L319.109 244.727V31.1152C319.109 29.7168 319.109 27.9688 319.109 25.8711C319.226 23.7734 319.284 22.2585 319.284 21.3262C319.284 20.3939 319.226 19.2285 319.109 17.8301C318.993 16.3151 318.76 15.3245 318.41 14.8584C318.177 14.2757 317.711 13.5765 317.012 12.7607C316.429 11.8285 315.613 11.2458 314.565 11.0127C313.632 10.7796 312.409 10.4883 310.894 10.1387C309.495 9.67253 307.805 9.38118 305.824 9.26465C303.843 9.14811 301.512 9.08984 298.832 9.08984V0Z" fill="#120707"/>
<path d="M676.326 0H699.051V244.727H676.326V0Z" fill="#120707"/>
<path d="M863.983 0H945.092C960.591 0 974.11 1.98112 985.647 5.94336C997.3 9.78906 1006.33 15.0332 1012.74 21.6758C1019.15 28.3184 1023.87 35.5436 1026.9 43.3516C1029.93 51.043 1031.45 59.3171 1031.45 68.1738C1031.45 97.4245 1015.83 118.518 984.598 131.453C1000.1 156.625 1010.88 173.872 1016.94 183.195C1031.04 205.104 1042.4 219.496 1051.02 226.372C1059.18 232.898 1068.97 236.219 1080.39 236.336L1080.74 244.727H1057.32C1049.74 244.727 1042.87 243.503 1036.69 241.056C1030.63 238.492 1025.39 235.229 1020.96 231.267C1016.65 227.304 1011.98 221.769 1006.97 214.66C1001.96 207.551 997.417 200.501 993.338 193.509C989.376 186.517 983.957 177.543 977.081 166.589C970.206 155.634 963.388 145.438 956.629 135.998H885.309V244.727H863.983V0ZM885.309 21.3262V127.258H942.645C950.22 127.258 957.095 126.792 963.272 125.859C969.448 124.927 975.45 123.237 981.277 120.79C987.103 118.343 991.94 115.138 995.785 111.176C999.748 107.214 1002.89 101.969 1005.22 95.4434C1007.56 88.9173 1008.72 81.3424 1008.72 72.7188C1008.72 65.0273 1007.5 58.21 1005.05 52.2666C1002.6 46.2067 998.641 40.846 993.163 36.1846C987.686 31.4066 980.053 27.7357 970.264 25.1719C960.475 22.6081 948.705 21.3262 934.953 21.3262H885.309Z" fill="#120707"/>
<mask id="path-2-inside-1_194_275" fill="white">
<path d="M1385.74 123.727C1385.74 190.001 1332.01 243.727 1265.74 243.727C1199.46 243.727 1145.74 190.001 1145.74 123.727C1145.74 57.4524 1199.46 3.72656 1265.74 3.72656C1332.01 3.72656 1385.74 57.4524 1385.74 123.727Z"/>
</mask>
<g clip-path="url(#paint0_angular_194_275_clip_path)" data-figma-skip-parse="true" mask="url(#path-2-inside-1_194_275)"><g transform="matrix(0 0.12 -0.12 0 1265.74 123.727)"><foreignObject x="-1066.67" y="-1066.67" width="2133.33" height="2133.33"><div xmlns="http://www.w3.org/1999/xhtml" style="background:conic-gradient(from 90deg,rgba(1, 134, 255, 1) 0deg,rgba(33, 100, 255, 1) 25.895deg,rgba(45, 87, 255, 1) 52.6656deg,rgba(125, 75, 255, 1) 78.1239deg,rgba(213, 62, 255, 1) 105.817deg,rgba(236, 62, 235, 1) 125.698deg,rgba(255, 63, 219, 1) 141.929deg,rgba(255, 55, 142, 1) 157.286deg,rgba(255, 45, 48, 1) 175.71deg,rgba(255, 114, 36, 1) 201.814deg,rgba(255, 170, 25, 1) 223.324deg,rgba(255, 210, 50, 1) 249.216deg,rgba(255, 248, 74, 1) 273.774deg,rgba(57, 255, 100, 1) 305.496deg,rgba(48, 255, 251, 1) 331.736deg,rgba(0, 135, 255, 1) 358.56deg,rgba(1, 134, 255, 1) 360deg);height:100%;width:100%;opacity:1"></div></foreignObject></g></g><path d="M1385.74 123.727H1377.74C1377.74 185.582 1327.59 235.727 1265.74 235.727V243.727V251.727C1336.43 251.727 1393.74 194.419 1393.74 123.727H1385.74ZM1265.74 243.727V235.727C1203.88 235.727 1153.74 185.582 1153.74 123.727H1145.74H1137.74C1137.74 194.419 1195.05 251.727 1265.74 251.727V243.727ZM1145.74 123.727H1153.74C1153.74 61.8707 1203.88 11.7266 1265.74 11.7266V3.72656V-4.27344C1195.05 -4.27344 1137.74 53.0341 1137.74 123.727H1145.74ZM1265.74 3.72656V11.7266C1327.59 11.7266 1377.74 61.8707 1377.74 123.727H1385.74H1393.74C1393.74 53.0341 1336.43 -4.27344 1265.74 -4.27344V3.72656Z" data-figma-gradient-fill="{&#34;type&#34;:&#34;GRADIENT_ANGULAR&#34;,&#34;stops&#34;:[{&#34;color&#34;:{&#34;r&#34;:0.13139763474464417,&#34;g&#34;:0.39277350902557373,&#34;b&#34;:1.0,&#34;a&#34;:1.0},&#34;position&#34;:0.071930624544620514},{&#34;color&#34;:{&#34;r&#34;:0.17827899754047394,&#34;g&#34;:0.34262320399284363,&#34;b&#34;:1.0,&#34;a&#34;:1.0},&#34;position&#34;:0.14629343152046204},{&#34;color&#34;:{&#34;r&#34;:0.49336159229278564,&#34;g&#34;:0.29517355561256409,&#34;b&#34;:1.0,&#34;a&#34;:1.0},&#34;position&#34;:0.21701090037822723},{&#34;color&#34;:{&#34;r&#34;:0.83610433340072632,&#34;g&#34;:0.24355843663215637,&#34;b&#34;:1.0,&#34;a&#34;:1.0},&#34;position&#34;:0.29393643140792847},{&#34;color&#34;:{&#34;r&#34;:0.92633759975433350,&#34;g&#34;:0.24686704576015472,&#34;b&#34;:0.924255371093750,&#34;a&#34;:1.0},&#34;position&#34;:0.34916210174560547},{&#34;color&#34;:{&#34;r&#34;:1.0,&#34;g&#34;:0.24956806004047394,&#34;b&#34;:0.86242079734802246,&#34;a&#34;:1.0},&#34;position&#34;:0.39424589276313782},{&#34;color&#34;:{&#34;r&#34;:1.0,&#34;g&#34;:0.21721935272216797,&#34;b&#34;:0.55769026279449463,&#34;a&#34;:1.0},&#34;position&#34;:0.43690502643585205},{&#34;color&#34;:{&#34;r&#34;:1.0,&#34;g&#34;:0.17841045558452606,&#34;b&#34;:0.19210360944271088,&#34;a&#34;:1.0},&#34;position&#34;:0.48808339238166809},{&#34;color&#34;:{&#34;r&#34;:1.0,&#34;g&#34;:0.447937011718750,&#34;b&#34;:0.14166265726089478,&#34;a&#34;:1.0},&#34;position&#34;:0.56059360504150391},{&#34;color&#34;:{&#34;r&#34;:1.0,&#34;g&#34;:0.67003577947616577,&#34;b&#34;:0.100097656250,&#34;a&#34;:1.0},&#34;position&#34;:0.62034440040588379},{&#34;color&#34;:{&#34;r&#34;:1.0,&#34;g&#34;:0.82723784446716309,&#34;b&#34;:0.19774194061756134,&#34;a&#34;:1.0},&#34;position&#34;:0.69226545095443726},{&#34;color&#34;:{&#34;r&#34;:1.0,&#34;g&#34;:0.97634530067443848,&#34;b&#34;:0.29035833477973938,&#34;a&#34;:1.0},&#34;position&#34;:0.76048314571380615},{&#34;color&#34;:{&#34;r&#34;:0.22455303370952606,&#34;g&#34;:1.0,&#34;b&#34;:0.39256653189659119,&#34;a&#34;:1.0},&#34;position&#34;:0.84859925508499146},{&#34;color&#34;:{&#34;r&#34;:0.19180062413215637,&#34;g&#34;:1.0,&#34;b&#34;:0.98653000593185425,&#34;a&#34;:1.0},&#34;position&#34;:0.92148882150650024},{&#34;color&#34;:{&#34;r&#34;:0.0,&#34;g&#34;:0.53333324193954468,&#34;b&#34;:1.0,&#34;a&#34;:1.0},&#34;position&#34;:0.99599874019622803}],&#34;stopsVar&#34;:[{&#34;color&#34;:{&#34;r&#34;:0.13139763474464417,&#34;g&#34;:0.39277350902557373,&#34;b&#34;:1.0,&#34;a&#34;:1.0},&#34;position&#34;:0.071930624544620514},{&#34;color&#34;:{&#34;r&#34;:0.17827899754047394,&#34;g&#34;:0.34262320399284363,&#34;b&#34;:1.0,&#34;a&#34;:1.0},&#34;position&#34;:0.14629343152046204},{&#34;color&#34;:{&#34;r&#34;:0.49336159229278564,&#34;g&#34;:0.29517355561256409,&#34;b&#34;:1.0,&#34;a&#34;:1.0},&#34;position&#34;:0.21701090037822723},{&#34;color&#34;:{&#34;r&#34;:0.83610433340072632,&#34;g&#34;:0.24355843663215637,&#34;b&#34;:1.0,&#34;a&#34;:1.0},&#34;position&#34;:0.29393643140792847},{&#34;color&#34;:{&#34;r&#34;:0.92633759975433350,&#34;g&#34;:0.24686704576015472,&#34;b&#34;:0.924255371093750,&#34;a&#34;:1.0},&#34;position&#34;:0.34916210174560547},{&#34;color&#34;:{&#34;r&#34;:1.0,&#34;g&#34;:0.24956806004047394,&#34;b&#34;:0.86242079734802246,&#34;a&#34;:1.0},&#34;position&#34;:0.39424589276313782},{&#34;color&#34;:{&#34;r&#34;:1.0,&#34;g&#34;:0.21721935272216797,&#34;b&#34;:0.55769026279449463,&#34;a&#34;:1.0},&#34;position&#34;:0.43690502643585205},{&#34;color&#34;:{&#34;r&#34;:1.0,&#34;g&#34;:0.17841045558452606,&#34;b&#34;:0.19210360944271088,&#34;a&#34;:1.0},&#34;position&#34;:0.48808339238166809},{&#34;color&#34;:{&#34;r&#34;:1.0,&#34;g&#34;:0.447937011718750,&#34;b&#34;:0.14166265726089478,&#34;a&#34;:1.0},&#34;position&#34;:0.56059360504150391},{&#34;color&#34;:{&#34;r&#34;:1.0,&#34;g&#34;:0.67003577947616577,&#34;b&#34;:0.100097656250,&#34;a&#34;:1.0},&#34;position&#34;:0.62034440040588379},{&#34;color&#34;:{&#34;r&#34;:1.0,&#34;g&#34;:0.82723784446716309,&#34;b&#34;:0.19774194061756134,&#34;a&#34;:1.0},&#34;position&#34;:0.69226545095443726},{&#34;color&#34;:{&#34;r&#34;:1.0,&#34;g&#34;:0.97634530067443848,&#34;b&#34;:0.29035833477973938,&#34;a&#34;:1.0},&#34;position&#34;:0.76048314571380615},{&#34;color&#34;:{&#34;r&#34;:0.22455303370952606,&#34;g&#34;:1.0,&#34;b&#34;:0.39256653189659119,&#34;a&#34;:1.0},&#34;position&#34;:0.84859925508499146},{&#34;color&#34;:{&#34;r&#34;:0.19180062413215637,&#34;g&#34;:1.0,&#34;b&#34;:0.98653000593185425,&#34;a&#34;:1.0},&#34;position&#34;:0.92148882150650024},{&#34;color&#34;:{&#34;r&#34;:0.0,&#34;g&#34;:0.53333324193954468,&#34;b&#34;:1.0,&#34;a&#34;:1.0},&#34;position&#34;:0.99599874019622803}],&#34;transform&#34;:{&#34;m00&#34;:1.4695762442780251e-14,&#34;m01&#34;:-240.0,&#34;m02&#34;:1385.738281250,&#34;m10&#34;:240.0,&#34;m11&#34;:-4.1162987731921397e-13,&#34;m12&#34;:3.72656250},&#34;opacity&#34;:1.0,&#34;blendMode&#34;:&#34;NORMAL&#34;,&#34;visible&#34;:true}" mask="url(#path-2-inside-1_194_275)"/>
<defs>
<clipPath id="paint0_angular_194_275_clip_path"><path d="M1385.74 123.727H1377.74C1377.74 185.582 1327.59 235.727 1265.74 235.727V243.727V251.727C1336.43 251.727 1393.74 194.419 1393.74 123.727H1385.74ZM1265.74 243.727V235.727C1203.88 235.727 1153.74 185.582 1153.74 123.727H1145.74H1137.74C1137.74 194.419 1195.05 251.727 1265.74 251.727V243.727ZM1145.74 123.727H1153.74C1153.74 61.8707 1203.88 11.7266 1265.74 11.7266V3.72656V-4.27344C1195.05 -4.27344 1137.74 53.0341 1137.74 123.727H1145.74ZM1265.74 3.72656V11.7266C1327.59 11.7266 1377.74 61.8707 1377.74 123.727H1385.74H1393.74C1393.74 53.0341 1336.43 -4.27344 1265.74 -4.27344V3.72656Z"/></clipPath></defs>
</svg>
